Coordinates
version=1
nRows=11
nColumns=63
inDegrees=yes

Units are S.I. units (second, meters, Newtons, ...)
If the header above contains a line with 'inDegrees', this indicates whether rotational values are in degrees (yes) or radians (no).

endheader
time	pelvis_tilt	pelvis_list	pelvis_rotation	pelvis_tx	pelvis_ty	pelvis_tz	hip_flexion_r	hip_adduction_r	hip_rotation_r	knee_angle_r	knee_angle_r_beta	ankle_angle_r	subtalar_angle_r	mtp_angle_r	hip_flexion_l	hip_adduction_l	hip_rotation_l	knee_angle_l	knee_angle_l_beta	ankle_angle_l	subtalar_angle_l	mtp_angle_l	L5_S1_Flex_Ext	L5_S1_Lat_Bending	L5_S1_axial_rotation	L4_L5_Flex_Ext	L4_L5_Lat_Bending	L4_L5_axial_rotation	L3_L4_Flex_Ext	L3_L4_Lat_Bending	L3_L4_axial_rotation	L2_L3_Flex_Ext	L2_L3_Lat_Bending	L2_L3_axial_rotation	L1_L2_Flex_Ext	L1_L2_Lat_Bending	L1_L2_axial_rotation	L1_T12_Flex_Ext	L1_T12_Lat_Bending	L1_T12_axial_rotation	Abs_r3	Abs_r2	Abs_r1	Abs_t1	Abs_t2	neck_flexion	neck_bending	neck_rotation	arm_flex_r	arm_add_r	arm_rot_r	elbow_flex_r	pro_sup_r	wrist_flex_r	wrist_dev_r	arm_flex_l	arm_add_l	arm_rot_l	elbow_flex_l	pro_sup_l	wrist_flex_l	wrist_dev_l
      8.36666670	      9.25799034	     -4.15549062	   -184.27979454	      0.67518286	      0.79650115	      0.24283525	     -1.16334732	     -2.03651429	     -3.12660052	     29.84249028	      0.52084971	     38.26681419	     -1.40237317	      0.00000000	     32.56494831	      8.77852103	      6.58218643	     24.40119324	      0.42588116	     15.46540692	     -7.29892677	      0.00000000	     -0.11351760	     -0.77656120	      1.62108297	     -0.21081353	     -1.03282640	      1.72240066	     -0.18649806	     -1.88813091	      1.72240066	     -0.12973926	     -1.88813091	      1.41844760	     -0.10541244	     -1.58356360	      1.31712991	     -0.06486395	     -1.20289330	      1.21581223	     -0.81084484	     -8.78461563	      9.01597716	      0.00000000	      0.00000000	      0.00000000	      0.00000000	      0.00000000	     -1.38470945	     -5.62118013	     -3.28567637	     50.33287893	     74.81381464	      0.00000000	      5.00000008	     -6.08319076	     -9.04451133	      1.46309544	     32.12851304	     72.82285070	      0.00000000	      5.00000008
      8.40000000	      8.77967357	     -5.42645377	   -183.93641635	      0.67138471	      0.79762912	      0.24572194	     -2.34139239	     -4.03151481	     -4.04379130	     31.61654442	      0.55181280	     38.68413472	     -1.74530417	      0.00000000	     30.04552295	     10.75054985	      6.28726235	     24.97737151	      0.43593737	     16.43656527	     -7.20347324	      0.00000000	     -0.13664982	     -0.98123114	      1.45380430	     -0.25377239	     -1.30503742	      1.54466707	     -0.22450199	     -2.38576540	      1.54466707	     -0.15617708	     -2.38576540	      1.27207876	     -0.12689303	     -2.00092655	      1.18121599	     -0.07808171	     -1.51992704	      1.09035323	     -0.97607602	    -11.09988294	      8.08562338	      0.00000000	      0.00000000	      0.00000000	      0.00000000	      0.00000000	     -2.50303399	     -4.30538681	     -3.39713645	     48.50911029	     74.98526994	      0.00000000	      5.00000008	     -6.39305637	    -10.22902309	      1.47730243	     32.54148278	     72.66270135	      0.00000000	      5.00000008
      8.43333330	      8.30516269	     -6.36703116	   -183.63962892	      0.66938867	      0.79919186	      0.24859920	     -2.77138638	     -5.78085039	     -4.96953212	     34.09413342	      0.59505488	     38.85711967	     -2.01285569	      0.00000000	     27.45538150	     12.30066989	      6.18684207	     25.06922524	      0.43754052	     17.34331707	     -6.83255235	      0.00000000	     -0.14844812	     -1.14768072	      1.19246409	     -0.27568301	     -1.52641536	      1.26699309	     -0.24388542	     -2.79047091	      1.26699309	     -0.16966136	     -2.79047091	      1.04340608	     -0.13784893	     -2.34035053	      0.96887707	     -0.08482326	     -1.77775744	      0.89434807	     -1.06035010	    -12.98279386	      6.63212751	      0.00000000	      0.00000000	      0.00000000	      0.00000000	      0.00000000	     -2.96826331	     -3.23227013	     -2.90475803	     45.67949304	     75.89613246	      0.00000000	      5.00000009	     -7.39252263	    -11.27611337	      1.01227880	     33.58132167	     71.94169619	      0.00000000	      5.00000009
      8.46666670	      7.97835834	     -6.93040753	   -183.48853635	      0.66935226	      0.80060009	      0.25150251	     -1.88507653	     -7.34024035	     -5.77077866	     37.81971320	      0.66007852	     38.84713316	     -2.18451175	      0.00000000	     25.07761873	     13.36252790	      6.27822755	     24.72843545	      0.43159262	     18.18765632	     -6.35031038	      0.00000000	     -0.14668873	     -1.25981985	      1.08121669	     -0.27241565	     -1.67556040	      1.14879273	     -0.24099492	     -3.06312599	      1.14879273	     -0.16765055	     -3.06312599	      0.94606461	     -0.13621516	     -2.56902464	      0.87848856	     -0.08381794	     -1.95146095	      0.81091252	     -1.04778296	    -14.25133414	      6.01340287	      0.00000000	      0.00000000	      0.00000000	      0.00000000	      0.00000000	     -4.14398836	     -2.56253931	     -2.98184607	     44.45880704	     75.90896892	      0.00000000	      5.00000010	     -7.58756810	    -12.04980170	      0.93485554	     33.42853150	     71.90932404	      0.00000000	      5.00000010
      8.50000000	      7.73888517	     -7.12958742	   -183.38001648	      0.67087082	      0.80177939	      0.25450737	      0.40354709	     -8.77842542	     -6.47580560	     42.91450715	      0.74899945	     38.45849439	     -2.40293598	      0.00000000	     23.01295527	     14.01321213	      6.48628104	     24.29896922	      0.42409702	     19.08065485	     -5.99005192	      0.00000000	     -0.15479719	     -1.32568919	      0.94507513	     -0.28747386	     -1.76316663	      1.00414232	     -0.25431630	     -3.22328071	      1.00414232	     -0.17691770	     -3.22328071	      0.82694074	     -0.14374467	     -2.70334541	      0.76787354	     -0.08845111	     -2.05349256	      0.70880635	     -1.10570082	    -14.99646131	      5.25622434	      0.00000000	      0.00000000	      0.00000000	      0.00000000	      0.00000000	     -5.19359679	     -2.14232469	     -3.08942211	     43.09512122	     75.88746079	      0.00000000	      5.00000010	     -7.60057966	    -12.66339076	      0.98449486	     33.29840111	     71.93135116	      0.00000000	      5.00000010
      8.53333330	      7.52974375	     -7.10660642	   -183.44805615	      0.67315095	      0.80294540	      0.25737212	      4.16496663	    -10.33629428	     -6.93886202	     49.34992120	      0.86131861	     37.58692404	     -2.46494651	      0.00000000	     21.00474073	     14.35480202	      6.64242998	     23.52421443	      0.41057500	     20.00444163	     -5.62087615	      0.00000000	     -0.15246036	     -1.36427415	      0.83592362	     -0.28313414	     -1.81448462	      0.88816884	     -0.25047713	     -3.31709617	      0.88816884	     -0.17424695	     -3.31709617	      0.73143316	     -0.14157469	     -2.78202785	      0.67918794	     -0.08711585	     -2.11326066	      0.62694271	     -1.08900913	    -15.43294207	      4.64915637	      0.00000000	      0.00000000	      0.00000000	      0.00000000	      0.00000000	     -5.74313667	     -1.87945430	     -3.22691904	     40.98607245	     75.82971238	      0.00000000	      5.00000010	     -7.56094801	    -13.21360422	      1.38650020	     33.50298742	     72.06236101	      0.00000000	      5.00000010
      8.56666670	      7.45149129	     -6.83341773	   -183.52196063	      0.67557293	      0.80390748	      0.26026567	      9.30178344	    -11.75506066	     -6.96763015	     56.48448148	      0.98584018	     35.78761820	     -3.14751242	      0.00000000	     19.23977704	     14.47523354	      7.00246344	     22.78389124	      0.39765392	     20.95675792	     -5.63440576	      0.00000000	     -0.14683767	     -1.36152797	      0.66755226	     -0.27269224	     -1.81083221	      0.70927427	     -0.24123961	     -3.31041912	      0.70927427	     -0.16782077	     -3.31041912	      0.58410822	     -0.13635346	     -2.77642784	      0.54238621	     -0.08390304	     -2.10900683	      0.50066419	     -1.04884679	    -15.40187675	      3.71272538	      0.00000000	      0.00000000	      0.00000000	      0.00000000	      0.00000000	     -6.38523917	     -1.91843434	     -3.28661044	     40.10679514	     75.71664178	      0.00000000	      5.00000010	     -7.27212469	    -13.47872519	      1.55092381	     33.24700238	     72.08063528	      0.00000000	      5.00000010
      8.60000000	      7.44325123	     -6.53573326	   -183.70894599	      0.67714842	      0.80496283	      0.26275019	     15.39051626	    -13.09188233	     -6.50354819	     63.40390846	      1.10660696	     33.39511722	     -3.89900490	      0.00000000	     17.35333435	     14.51775446	      7.40249968	     21.66074959	      0.37805140	     21.83695864	     -5.78657391	      0.00000000	     -0.12348794	     -1.35264106	      0.51809756	     -0.22932945	     -1.79901261	      0.55047866	     -0.20287834	     -3.28881147	      0.55047866	     -0.14113437	     -3.28881147	      0.45333536	     -0.11467090	     -2.75830565	      0.42095427	     -0.07056101	     -2.09524100	      0.38857317	     -0.88206201	    -15.30134618	      2.88150320	      0.00000000	      0.00000000	      0.00000000	      0.00000000	      0.00000000	     -6.89869459	     -2.03304304	     -3.34189585	     39.01003457	     75.62986417	      0.00000000	      5.00000010	     -6.80190448	    -13.74008796	      1.83461013	     33.27906669	     72.18126903	      0.00000000	      5.00000010
      8.63333330	      7.29585332	     -6.29024311	   -183.85114875	      0.67755446	      0.80639437	      0.26467828	     21.67625973	    -14.17544723	     -5.73418002	     69.16048472	      1.20707817	     30.82132059	     -4.67028431	      0.00000000	     15.03957303	     14.61385227	      8.13636221	     20.15008882	      0.35168539	     22.41703646	     -6.22965697	      0.00000000	     -0.10986893	     -1.35614327	      0.34627198	     -0.20403759	     -1.80367055	      0.36791397	     -0.18050366	     -3.29732674	      0.36791397	     -0.12556920	     -3.29732674	      0.30298798	     -0.10202429	     -2.76544735	      0.28134598	     -0.06277911	     -2.10066592	      0.25970398	     -0.78478277	    -15.34096389	      1.92586085	      0.00000000	      0.00000000	      0.00000000	      0.00000000	      0.00000000	     -7.14344377	     -2.10666775	     -3.29903572	     37.40588648	     75.37936832	      0.00000000	      5.00000010	     -6.37214019	    -14.26227150	      2.70268964	     34.24278621	     72.45596665	      0.00000000	      5.00000010
      8.66666670	      7.13707006	     -5.95726719	   -183.71661150	      0.67687652	      0.80807949	      0.26630353	     27.63721035	    -14.73781662	     -5.11518424	     72.95025126	      1.27322207	     28.59362558	     -5.22038234	      0.00000000	     12.53900653	     14.53785674	      9.02779077	     18.50600886	      0.32299079	     23.03804594	     -6.18997276	      0.00000000	     -0.08111487	     -1.33831951	      0.06605531	     -0.15063843	     -1.77996495	      0.07018377	     -0.13326362	     -3.25399006	      0.07018377	     -0.09270619	     -3.25399006	      0.05779840	     -0.07532327	     -2.72910115	      0.05366994	     -0.04634904	     -2.07305692	      0.04954149	     -0.57939541	    -15.13933796	      0.36737984	      0.00000000	      0.00000000	      0.00000000	      0.00000000	      0.00000000	     -7.57863386	     -2.19093361	     -3.36820985	     36.82145786	     75.25543874	      0.00000000	      5.00000010	     -5.67901052	    -14.56404841	      2.94637535	     34.36140094	     72.52346230	      0.00000000	      5.00000010
      8.70000000	      6.79807892	     -5.71055497	   -183.52513312	      0.67558506	      0.81019812	      0.26730585	     32.70168722	    -14.79207149	     -4.51155595	     74.45528744	      1.29948991	     27.09216852	     -5.48780241	      0.00000000	      9.54161471	     14.42399356	     10.14166366	     16.28880389	      0.28429326	     23.08601881	     -6.24885942	      0.00000000	     -0.06306651	     -1.33459009	     -0.21959503	     -0.11712082	     -1.77500482	     -0.23331972	     -0.10361198	     -3.24492235	     -0.23331972	     -0.07207872	     -3.24492235	     -0.19214565	     -0.05856357	     -2.72149612	     -0.17842096	     -0.03603621	     -2.06728005	     -0.16469627	     -0.45047781	    -15.09715005	     -1.22132168	      0.00000000	      0.00000000	      0.00000000	      0.00000000	      0.00000000	     -7.91658713	     -2.14560343	     -3.43359853	     36.05418384	     75.06475960	      0.00000000	      5.00000010	     -4.98082445	    -15.06090622	      3.37054831	     35.10619093	     72.61758937	      0.00000000	      5.00000010
